<svg width="105" height="104" viewBox="0 0 105 104" fill="none" xmlns="http://www.w3.org/2000/svg">
<path fill-rule="evenodd" clip-rule="evenodd" d="M77.4333 37.2389C78.9582 38.8374 78.8986 41.3693 77.3002 42.8942L47.9502 70.8942C46.4037 72.3695 43.9707 72.3685 42.4255 70.8919L27.7755 56.8919C26.1784 55.3656 26.121 52.8336 27.6472 51.2365C29.1735 49.6393 31.7055 49.5819 33.3026 51.1082L45.1914 62.4695L71.778 37.1058C73.3764 35.5809 75.9084 35.6405 77.4333 37.2389Z" fill="#C4C4CC"/>
<path fill-rule="evenodd" clip-rule="evenodd" d="M52.5391 8C28.2385 8 8.53906 27.6995 8.53906 52C8.53906 76.3005 28.2385 96 52.5391 96C76.8396 96 96.5391 76.3005 96.5391 52C96.5391 27.6995 76.8396 8 52.5391 8ZM0.539062 52C0.539062 23.2812 23.8203 0 52.5391 0C81.2579 0 104.539 23.2812 104.539 52C104.539 80.7188 81.2579 104 52.5391 104C23.8203 104 0.539062 80.7188 0.539062 52Z" fill="#C4C4CC"/>
</svg>
