<svg width="128" height="128" viewBox="0 0 128 128" fill="none" xmlns="http://www.w3.org/2000/svg">
<path fill-rule="evenodd" clip-rule="evenodd" d="M64 20C39.6995 20 20 39.6995 20 64C20 88.3005 39.6995 108 64 108C88.3005 108 108 88.3005 108 64C108 39.6995 88.3005 20 64 20ZM12 64C12 35.2812 35.2812 12 64 12C92.7188 12 116 35.2812 116 64C116 92.7188 92.7188 116 64 116C35.2812 116 12 92.7188 12 64ZM64 32C66.2091 32 68 33.7909 68 36V60H92C94.2091 60 96 61.7909 96 64C96 66.2091 94.2091 68 92 68H64C61.7909 68 60 66.2091 60 64V36C60 33.7909 61.7909 32 64 32Z" fill="#C4C4CC"/>
</svg>
