<svg width="25" height="24" viewBox="0 0 25 24" fill="none" xmlns="http://www.w3.org/2000/svg">
<path d="M16.0166 18.0358L16.0168 18.0359C16.4611 18.48 16.983 18.8208 17.5516 19.0455L14.3712 22.226C13.3378 23.2593 11.6623 23.2592 10.6291 22.226L10.6291 22.226L7.53581 19.1328C8.18267 18.9123 8.77587 18.5452 9.27219 18.0491L9.27237 18.0489L12.6511 14.6701L16.0166 18.0358Z" stroke="white" stroke-width="2"/>
<path d="M17.5513 4.95545C16.9828 5.18013 16.4609 5.5209 16.0166 5.96497L16.0164 5.96517L12.6507 9.33115L9.27222 5.95203L9.27198 5.9518C8.77571 5.45576 8.18255 5.08861 7.53574 4.86819L10.6289 1.77504L10.6289 1.77501C11.6621 0.741704 13.3375 0.741615 14.371 1.77503C14.371 1.77504 14.371 1.77505 14.3711 1.77507L17.5513 4.95545ZM12.4157 9.56619C12.416 9.56587 12.4163 9.56554 12.4167 9.56522L12.4157 9.56619ZM12.8852 9.56564L12.8851 9.56556C12.8851 9.56559 12.8851 9.56562 12.8852 9.56564Z" stroke="white" stroke-width="2"/>
<mask id="path-3-inside-1_4537_1200" fill="white">
<path d="M23.4321 9.4224L20.6692 6.65944C20.6084 6.6838 20.5425 6.69901 20.4729 6.69901H19.2167C18.5672 6.69901 17.9315 6.96244 17.4725 7.4217L13.8729 11.0214C13.5361 11.3583 13.0934 11.5268 12.6512 11.5268C12.2086 11.5268 11.7663 11.3583 11.4295 11.0217L7.81628 7.40854C7.35736 6.94918 6.72159 6.68586 6.07212 6.68586H4.52745C4.46156 6.68586 4.4 6.67033 4.34187 6.64844L1.56793 9.4224C0.144023 10.8463 0.144023 13.1548 1.56793 14.5787L4.34176 17.3525C4.39999 17.3306 4.46156 17.3151 4.52745 17.3151H6.07212C6.72159 17.3151 7.35736 17.0518 7.81628 16.5925L11.4292 12.9796C12.0822 12.3272 13.2206 12.3269 13.8729 12.9799L17.4725 16.5794C17.9315 17.0386 18.5672 17.302 19.2167 17.302H20.4729C20.5425 17.302 20.6084 17.3172 20.6692 17.3416L23.4321 14.5787C24.8559 13.1547 24.8559 10.8463 23.4321 9.42238"/>
</mask>
<path d="M20.6692 6.65944L22.0834 5.24523L21.1504 4.3122L19.9255 4.80285L20.6692 6.65944ZM17.4725 7.4217L18.8868 8.83589L18.8873 8.83541L17.4725 7.4217ZM13.8729 11.0214L15.2871 12.4356L15.2872 12.4356L13.8729 11.0214ZM11.4295 11.0217L10.0153 12.436L10.0157 12.4364L11.4295 11.0217ZM7.81628 7.40854L6.4014 8.82209L6.40207 8.82275L7.81628 7.40854ZM4.34187 6.64844L5.04683 4.7768L3.83974 4.32214L2.92766 5.23423L4.34187 6.64844ZM1.56793 9.4224L2.98215 10.8366L2.98215 10.8366L1.56793 9.4224ZM1.56793 14.5787L2.98215 13.1645L2.98215 13.1645L1.56793 14.5787ZM4.34176 17.3525L2.92755 18.7667L3.83893 19.6781L5.04541 19.2246L4.34176 17.3525ZM7.81628 16.5925L6.40207 15.1783L6.40157 15.1788L7.81628 16.5925ZM11.4292 12.9796L10.0155 11.5648L10.0149 11.5654L11.4292 12.9796ZM13.8729 12.9799L12.458 14.3935L12.4588 14.3942L13.8729 12.9799ZM17.4725 16.5794L18.8873 15.1656L18.8867 15.1651L17.4725 16.5794ZM20.6692 17.3416L19.9249 19.198L21.1501 19.6892L22.0834 18.7558L20.6692 17.3416ZM23.4321 14.5787L24.8464 15.9929L24.8464 15.9928L23.4321 14.5787ZM24.8464 8.00818L22.0834 5.24523L19.255 8.07365L22.0179 10.8366L24.8464 8.00818ZM19.9255 4.80285C20.0605 4.74876 20.2473 4.69901 20.4729 4.69901V8.69901C20.8376 8.69901 21.1562 8.61884 21.4129 8.51603L19.9255 4.80285ZM20.4729 4.69901H19.2167V8.69901H20.4729V4.69901ZM19.2167 4.69901C18.0367 4.69901 16.892 5.17322 16.0578 6.00798L18.8873 8.83541C18.9709 8.75166 19.0977 8.69901 19.2167 8.69901V4.69901ZM16.0583 6.0075L12.4587 9.60723L15.2872 12.4356L18.8868 8.83589L16.0583 6.0075ZM12.4587 9.60722C12.513 9.55293 12.5862 9.52683 12.6512 9.52683V13.5268C13.6007 13.5268 14.5591 13.1636 15.2871 12.4356L12.4587 9.60722ZM12.6512 9.52683C12.7158 9.52683 12.789 9.55288 12.8433 9.60708L10.0157 12.4364C10.7435 13.1637 11.7013 13.5268 12.6512 13.5268V9.52683ZM12.8437 9.60753L9.2305 5.99432L6.40207 8.82275L10.0153 12.436L12.8437 9.60753ZM9.23116 5.99499C8.39678 5.15982 7.25188 4.68586 6.07212 4.68586V8.68586C6.1913 8.68586 6.31794 8.73854 6.4014 8.82209L9.23116 5.99499ZM6.07212 4.68586H4.52745V8.68586H6.07212V4.68586ZM4.52745 4.68586C4.77909 4.68586 4.96476 4.74588 5.04683 4.7768L3.63692 8.52008C3.83523 8.59477 4.14403 8.68586 4.52745 8.68586V4.68586ZM2.92766 5.23423L0.153713 8.00819L2.98215 10.8366L5.75609 8.06265L2.92766 5.23423ZM0.153714 8.00818C-2.05124 10.2131 -2.05124 13.7879 0.153714 15.9929L2.98215 13.1645C2.33928 12.5216 2.33928 11.4795 2.98215 10.8366L0.153714 8.00818ZM0.153713 15.9929L2.92755 18.7667L5.75598 15.9383L2.98215 13.1645L0.153713 15.9929ZM5.04541 19.2246C4.96457 19.255 4.77914 19.3151 4.52745 19.3151V15.3151C4.14398 15.3151 3.83541 15.4062 3.63811 15.4804L5.04541 19.2246ZM4.52745 19.3151H6.07212V15.3151H4.52745V19.3151ZM6.07212 19.3151C7.25185 19.3151 8.39667 18.8412 9.231 18.0062L6.40157 15.1788C6.31804 15.2624 6.19132 15.3151 6.07212 15.3151V19.3151ZM9.2305 18.0067L12.8434 14.3939L10.0149 11.5654L6.40207 15.1783L9.2305 18.0067ZM12.8428 14.3944C12.7545 14.4826 12.6747 14.4902 12.6512 14.4902C12.6277 14.4902 12.547 14.4825 12.458 14.3935L15.2878 11.5664C13.8536 10.1308 11.4488 10.1327 10.0155 11.5648L12.8428 14.3944ZM12.4588 14.3942L16.0584 17.9936L18.8867 15.1651L15.2871 11.5657L12.4588 14.3942ZM16.0578 17.9931C16.892 18.8278 18.0367 19.302 19.2167 19.302V15.302C19.0977 15.302 18.9709 15.2494 18.8873 15.1656L16.0578 17.9931ZM19.2167 19.302H20.4729V15.302H19.2167V19.302ZM20.4729 19.302C20.2476 19.302 20.0607 19.2524 19.9249 19.198L21.4134 15.4852C21.156 15.3821 20.8373 15.302 20.4729 15.302V19.302ZM22.0834 18.7558L24.8464 15.9929L22.0179 13.1644L19.255 15.9274L22.0834 18.7558ZM24.8464 15.9928C27.0512 13.7879 27.0512 10.2132 24.8464 8.00822L22.0179 10.8365C22.6607 11.4794 22.6607 12.5216 22.0179 13.1645L24.8464 15.9928Z" fill="white" mask="url(#path-3-inside-1_4537_1200)"/>
</svg>
