<svg width="200" height="200" viewBox="0 0 200 200" fill="none" xmlns="http://www.w3.org/2000/svg">
<g clip-path="url(#clip0_4537_1210)">
<path d="M200 0H0V200H200V0Z" fill="#00070A"/>
<path d="M7.40723 7.40723H14.8146V14.8146H7.40723V7.40723ZM14.8146 7.40723H22.222V14.8146H14.8146V7.40723ZM22.222 7.40723H29.6294V14.8146H22.222V7.40723ZM29.6294 7.40723H37.0369V14.8146H29.6294V7.40723ZM37.0369 7.40723H44.4443V14.8146H37.0369V7.40723ZM44.4443 7.40723H51.8517V14.8146H44.4443V7.40723ZM51.8517 7.40723H59.2591V14.8146H51.8517V7.40723ZM74.0739 7.40723H81.4813V14.8146H74.0739V7.40723ZM103.704 7.40723H111.111V14.8146H103.704V7.40723ZM140.741 7.40723H148.148V14.8146H140.741V7.40723ZM148.148 7.40723H155.555V14.8146H148.148V7.40723ZM155.555 7.40723H162.963V14.8146H155.555V7.40723ZM162.963 7.40723H170.37V14.8146H162.963V7.40723ZM170.37 7.40723H177.778V14.8146H170.37V7.40723ZM177.778 7.40723H185.185V14.8146H177.778V7.40723ZM185.185 7.40723H192.592V14.8146H185.185V7.40723ZM7.40723 14.8146H14.8146V22.222H7.40723V14.8146ZM51.8517 14.8146H59.2591V22.222H51.8517V14.8146ZM66.6665 14.8146H74.0739V22.222H66.6665V14.8146ZM74.0739 14.8146H81.4813V22.222H74.0739V14.8146ZM88.8887 14.8146H96.2961V22.222H88.8887V14.8146ZM96.2961 14.8146H103.704V22.222H96.2961V14.8146ZM103.704 14.8146H111.111V22.222H103.704V14.8146ZM111.111 14.8146H118.518V22.222H111.111V14.8146ZM118.518 14.8146H125.926V22.222H118.518V14.8146ZM140.741 14.8146H148.148V22.222H140.741V14.8146ZM185.185 14.8146H192.592V22.222H185.185V14.8146ZM7.40723 22.222H14.8146V29.6294H7.40723V22.222ZM22.222 22.222H29.6294V29.6294H22.222V22.222ZM29.6294 22.222H37.0369V29.6294H29.6294V22.222ZM37.0369 22.222H44.4443V29.6294H37.0369V22.222ZM51.8517 22.222H59.2591V29.6294H51.8517V22.222ZM74.0739 22.222H81.4813V29.6294H74.0739V22.222ZM81.4813 22.222H88.8887V29.6294H81.4813V22.222ZM88.8887 22.222H96.2961V29.6294H88.8887V22.222ZM111.111 22.222H118.518V29.6294H111.111V22.222ZM140.741 22.222H148.148V29.6294H140.741V22.222ZM155.555 22.222H162.963V29.6294H155.555V22.222ZM162.963 22.222H170.37V29.6294H162.963V22.222ZM170.37 22.222H177.778V29.6294H170.37V22.222ZM185.185 22.222H192.592V29.6294H185.185V22.222ZM7.40723 29.6294H14.8146V37.0369H7.40723V29.6294ZM22.222 29.6294H29.6294V37.0369H22.222V29.6294ZM29.6294 29.6294H37.0369V37.0369H29.6294V29.6294ZM37.0369 29.6294H44.4443V37.0369H37.0369V29.6294ZM51.8517 29.6294H59.2591V37.0369H51.8517V29.6294ZM66.6665 29.6294H74.0739V37.0369H66.6665V29.6294ZM74.0739 29.6294H81.4813V37.0369H74.0739V29.6294ZM88.8887 29.6294H96.2961V37.0369H88.8887V29.6294ZM103.704 29.6294H111.111V37.0369H103.704V29.6294ZM111.111 29.6294H118.518V37.0369H111.111V29.6294ZM118.518 29.6294H125.926V37.0369H118.518V29.6294ZM125.926 29.6294H133.333V37.0369H125.926V29.6294ZM140.741 29.6294H148.148V37.0369H140.741V29.6294ZM155.555 29.6294H162.963V37.0369H155.555V29.6294ZM162.963 29.6294H170.37V37.0369H162.963V29.6294ZM170.37 29.6294H177.778V37.0369H170.37V29.6294ZM185.185 29.6294H192.592V37.0369H185.185V29.6294ZM7.40723 37.0369H14.8146V44.4443H7.40723V37.0369ZM22.222 37.0369H29.6294V44.4443H22.222V37.0369ZM29.6294 37.0369H37.0369V44.4443H29.6294V37.0369ZM37.0369 37.0369H44.4443V44.4443H37.0369V37.0369ZM51.8517 37.0369H59.2591V44.4443H51.8517V37.0369ZM81.4813 37.0369H88.8887V44.4443H81.4813V37.0369ZM96.2961 37.0369H103.704V44.4443H96.2961V37.0369ZM125.926 37.0369H133.333V44.4443H125.926V37.0369ZM140.741 37.0369H148.148V44.4443H140.741V37.0369ZM155.555 37.0369H162.963V44.4443H155.555V37.0369ZM162.963 37.0369H170.37V44.4443H162.963V37.0369ZM170.37 37.0369H177.778V44.4443H170.37V37.0369ZM185.185 37.0369H192.592V44.4443H185.185V37.0369ZM7.40723 44.4443H14.8146V51.8517H7.40723V44.4443ZM51.8517 44.4443H59.2591V51.8517H51.8517V44.4443ZM66.6665 44.4443H74.0739V51.8517H66.6665V44.4443ZM81.4813 44.4443H88.8887V51.8517H81.4813V44.4443ZM111.111 44.4443H118.518V51.8517H111.111V44.4443ZM118.518 44.4443H125.926V51.8517H118.518V44.4443ZM140.741 44.4443H148.148V51.8517H140.741V44.4443ZM185.185 44.4443H192.592V51.8517H185.185V44.4443ZM7.40723 51.8517H14.8146V59.2591H7.40723V51.8517ZM14.8146 51.8517H22.222V59.2591H14.8146V51.8517ZM22.222 51.8517H29.6294V59.2591H22.222V51.8517ZM29.6294 51.8517H37.0369V59.2591H29.6294V51.8517ZM37.0369 51.8517H44.4443V59.2591H37.0369V51.8517ZM44.4443 51.8517H51.8517V59.2591H44.4443V51.8517ZM51.8517 51.8517H59.2591V59.2591H51.8517V51.8517ZM66.6665 51.8517H74.0739V59.2591H66.6665V51.8517ZM81.4813 51.8517H88.8887V59.2591H81.4813V51.8517ZM96.2961 51.8517H103.704V59.2591H96.2961V51.8517ZM111.111 51.8517H118.518V59.2591H111.111V51.8517ZM125.926 51.8517H133.333V59.2591H125.926V51.8517ZM140.741 51.8517H148.148V59.2591H140.741V51.8517ZM148.148 51.8517H155.555V59.2591H148.148V51.8517ZM155.555 51.8517H162.963V59.2591H155.555V51.8517ZM162.963 51.8517H170.37V59.2591H162.963V51.8517ZM170.37 51.8517H177.778V59.2591H170.37V51.8517ZM177.778 51.8517H185.185V59.2591H177.778V51.8517ZM185.185 51.8517H192.592V59.2591H185.185V51.8517ZM96.2961 59.2591H103.704V66.6665H96.2961V59.2591ZM111.111 59.2591H118.518V66.6665H111.111V59.2591ZM7.40723 66.6665H14.8146V74.0739H7.40723V66.6665ZM14.8146 66.6665H22.222V74.0739H14.8146V66.6665ZM22.222 66.6665H29.6294V74.0739H22.222V66.6665ZM29.6294 66.6665H37.0369V74.0739H29.6294V66.6665ZM37.0369 66.6665H44.4443V74.0739H37.0369V66.6665ZM51.8517 66.6665H59.2591V74.0739H51.8517V66.6665ZM59.2591 66.6665H66.6665V74.0739H59.2591V66.6665ZM66.6665 66.6665H74.0739V74.0739H66.6665V66.6665ZM74.0739 66.6665H81.4813V74.0739H74.0739V66.6665ZM81.4813 66.6665H88.8887V74.0739H81.4813V66.6665ZM96.2961 66.6665H103.704V74.0739H96.2961V66.6665ZM103.704 66.6665H111.111V74.0739H103.704V66.6665ZM111.111 66.6665H118.518V74.0739H111.111V66.6665ZM118.518 66.6665H125.926V74.0739H118.518V66.6665ZM133.333 66.6665H140.741V74.0739H133.333V66.6665ZM148.148 66.6665H155.555V74.0739H148.148V66.6665ZM162.963 66.6665H170.37V74.0739H162.963V66.6665ZM177.778 66.6665H185.185V74.0739H177.778V66.6665ZM29.6294 74.0739H37.0369V81.4813H29.6294V74.0739ZM37.0369 74.0739H44.4443V81.4813H37.0369V74.0739ZM44.4443 74.0739H51.8517V81.4813H44.4443V74.0739ZM59.2591 74.0739H66.6665V81.4813H59.2591V74.0739ZM74.0739 74.0739H81.4813V81.4813H74.0739V74.0739ZM103.704 74.0739H111.111V81.4813H103.704V74.0739ZM111.111 74.0739H118.518V81.4813H111.111V74.0739ZM125.926 74.0739H133.333V81.4813H125.926V74.0739ZM133.333 74.0739H140.741V81.4813H133.333V74.0739ZM148.148 74.0739H155.555V81.4813H148.148V74.0739ZM162.963 74.0739H170.37V81.4813H162.963V74.0739ZM37.0369 81.4813H44.4443V88.8887H37.0369V81.4813ZM44.4443 81.4813H51.8517V88.8887H44.4443V81.4813ZM51.8517 81.4813H59.2591V88.8887H51.8517V81.4813ZM66.6665 81.4813H74.0739V88.8887H66.6665V81.4813ZM74.0739 81.4813H81.4813V88.8887H74.0739V81.4813ZM88.8887 81.4813H96.2961V88.8887H88.8887V81.4813ZM96.2961 81.4813H103.704V88.8887H96.2961V81.4813ZM118.518 81.4813H125.926V88.8887H118.518V81.4813ZM133.333 81.4813H140.741V88.8887H133.333V81.4813ZM140.741 81.4813H148.148V88.8887H140.741V81.4813ZM148.148 81.4813H155.555V88.8887H148.148V81.4813ZM170.37 81.4813H177.778V88.8887H170.37V81.4813ZM177.778 81.4813H185.185V88.8887H177.778V81.4813ZM185.185 81.4813H192.592V88.8887H185.185V81.4813ZM7.40723 88.8887H14.8146V96.2961H7.40723V88.8887ZM14.8146 88.8887H22.222V96.2961H14.8146V88.8887ZM22.222 88.8887H29.6294V96.2961H22.222V88.8887ZM44.4443 88.8887H51.8517V96.2961H44.4443V88.8887ZM74.0739 88.8887H81.4813V96.2961H74.0739V88.8887ZM81.4813 88.8887H88.8887V96.2961H81.4813V88.8887ZM88.8887 88.8887H96.2961V96.2961H88.8887V88.8887ZM125.926 88.8887H133.333V96.2961H125.926V88.8887ZM140.741 88.8887H148.148V96.2961H140.741V88.8887ZM177.778 88.8887H185.185V96.2961H177.778V88.8887ZM14.8146 96.2961H22.222V103.704H14.8146V96.2961ZM37.0369 96.2961H44.4443V103.704H37.0369V96.2961ZM51.8517 96.2961H59.2591V103.704H51.8517V96.2961ZM59.2591 96.2961H66.6665V103.704H59.2591V96.2961ZM74.0739 96.2961H81.4813V103.704H74.0739V96.2961ZM88.8887 96.2961H96.2961V103.704H88.8887V96.2961ZM96.2961 96.2961H103.704V103.704H96.2961V96.2961ZM103.704 96.2961H111.111V103.704H103.704V96.2961ZM111.111 96.2961H118.518V103.704H111.111V96.2961ZM140.741 96.2961H148.148V103.704H140.741V96.2961ZM155.555 96.2961H162.963V103.704H155.555V96.2961ZM162.963 96.2961H170.37V103.704H162.963V96.2961ZM170.37 96.2961H177.778V103.704H170.37V96.2961ZM177.778 96.2961H185.185V103.704H177.778V96.2961ZM7.40723 103.704H14.8146V111.111H7.40723V103.704ZM14.8146 103.704H22.222V111.111H14.8146V103.704ZM37.0369 103.704H44.4443V111.111H37.0369V103.704ZM59.2591 103.704H66.6665V111.111H59.2591V103.704ZM74.0739 103.704H81.4813V111.111H74.0739V103.704ZM81.4813 103.704H88.8887V111.111H81.4813V103.704ZM96.2961 103.704H103.704V111.111H96.2961V103.704ZM111.111 103.704H118.518V111.111H111.111V103.704ZM148.148 103.704H155.555V111.111H148.148V103.704ZM162.963 103.704H170.37V111.111H162.963V103.704ZM170.37 103.704H177.778V111.111H170.37V103.704ZM7.40723 111.111H14.8146V118.518H7.40723V111.111ZM22.222 111.111H29.6294V118.518H22.222V111.111ZM44.4443 111.111H51.8517V118.518H44.4443V111.111ZM51.8517 111.111H59.2591V118.518H51.8517V111.111ZM59.2591 111.111H66.6665V118.518H59.2591V111.111ZM66.6665 111.111H74.0739V118.518H66.6665V111.111ZM74.0739 111.111H81.4813V118.518H74.0739V111.111ZM81.4813 111.111H88.8887V118.518H81.4813V111.111ZM96.2961 111.111H103.704V118.518H96.2961V111.111ZM118.518 111.111H125.926V118.518H118.518V111.111ZM125.926 111.111H133.333V118.518H125.926V111.111ZM133.333 111.111H140.741V118.518H133.333V111.111ZM148.148 111.111H155.555V118.518H148.148V111.111ZM170.37 111.111H177.778V118.518H170.37V111.111ZM177.778 111.111H185.185V118.518H177.778V111.111ZM185.185 111.111H192.592V118.518H185.185V111.111ZM7.40723 118.518H14.8146V125.926H7.40723V118.518ZM37.0369 118.518H44.4443V125.926H37.0369V118.518ZM66.6665 118.518H74.0739V125.926H66.6665V118.518ZM74.0739 118.518H81.4813V125.926H74.0739V118.518ZM81.4813 118.518H88.8887V125.926H81.4813V118.518ZM88.8887 118.518H96.2961V125.926H88.8887V118.518ZM96.2961 118.518H103.704V125.926H96.2961V118.518ZM118.518 118.518H125.926V125.926H118.518V118.518ZM125.926 118.518H133.333V125.926H125.926V118.518ZM148.148 118.518H155.555V125.926H148.148V118.518ZM7.40723 125.926H14.8146V133.333H7.40723V125.926ZM37.0369 125.926H44.4443V133.333H37.0369V125.926ZM44.4443 125.926H51.8517V133.333H44.4443V125.926ZM51.8517 125.926H59.2591V133.333H51.8517V125.926ZM59.2591 125.926H66.6665V133.333H59.2591V125.926ZM81.4813 125.926H88.8887V133.333H81.4813V125.926ZM103.704 125.926H111.111V133.333H103.704V125.926ZM111.111 125.926H118.518V133.333H111.111V125.926ZM125.926 125.926H133.333V133.333H125.926V125.926ZM133.333 125.926H140.741V133.333H133.333V125.926ZM140.741 125.926H148.148V133.333H140.741V125.926ZM148.148 125.926H155.555V133.333H148.148V125.926ZM155.555 125.926H162.963V133.333H155.555V125.926ZM162.963 125.926H170.37V133.333H162.963V125.926ZM170.37 125.926H177.778V133.333H170.37V125.926ZM185.185 125.926H192.592V133.333H185.185V125.926ZM66.6665 133.333H74.0739V140.741H66.6665V133.333ZM74.0739 133.333H81.4813V140.741H74.0739V133.333ZM81.4813 133.333H88.8887V140.741H81.4813V133.333ZM88.8887 133.333H96.2961V140.741H88.8887V133.333ZM103.704 133.333H111.111V140.741H103.704V133.333ZM118.518 133.333H125.926V140.741H118.518V133.333ZM125.926 133.333H133.333V140.741H125.926V133.333ZM155.555 133.333H162.963V140.741H155.555V133.333ZM177.778 133.333H185.185V140.741H177.778V133.333ZM7.40723 140.741H14.8146V148.148H7.40723V140.741ZM14.8146 140.741H22.222V148.148H14.8146V140.741ZM22.222 140.741H29.6294V148.148H22.222V140.741ZM29.6294 140.741H37.0369V148.148H29.6294V140.741ZM37.0369 140.741H44.4443V148.148H37.0369V140.741ZM44.4443 140.741H51.8517V148.148H44.4443V140.741ZM51.8517 140.741H59.2591V148.148H51.8517V140.741ZM66.6665 140.741H74.0739V148.148H66.6665V140.741ZM74.0739 140.741H81.4813V148.148H74.0739V140.741ZM111.111 140.741H118.518V148.148H111.111V140.741ZM125.926 140.741H133.333V148.148H125.926V140.741ZM140.741 140.741H148.148V148.148H140.741V140.741ZM155.555 140.741H162.963V148.148H155.555V140.741ZM177.778 140.741H185.185V148.148H177.778V140.741ZM185.185 140.741H192.592V148.148H185.185V140.741ZM7.40723 148.148H14.8146V155.555H7.40723V148.148ZM51.8517 148.148H59.2591V155.555H51.8517V148.148ZM74.0739 148.148H81.4813V155.555H74.0739V148.148ZM125.926 148.148H133.333V155.555H125.926V148.148ZM155.555 148.148H162.963V155.555H155.555V148.148ZM7.40723 155.555H14.8146V162.963H7.40723V155.555ZM22.222 155.555H29.6294V162.963H22.222V155.555ZM29.6294 155.555H37.0369V162.963H29.6294V155.555ZM37.0369 155.555H44.4443V162.963H37.0369V155.555ZM51.8517 155.555H59.2591V162.963H51.8517V155.555ZM66.6665 155.555H74.0739V162.963H66.6665V155.555ZM81.4813 155.555H88.8887V162.963H81.4813V155.555ZM96.2961 155.555H103.704V162.963H96.2961V155.555ZM103.704 155.555H111.111V162.963H103.704V155.555ZM111.111 155.555H118.518V162.963H111.111V155.555ZM118.518 155.555H125.926V162.963H118.518V155.555ZM125.926 155.555H133.333V162.963H125.926V155.555ZM133.333 155.555H140.741V162.963H133.333V155.555ZM140.741 155.555H148.148V162.963H140.741V155.555ZM148.148 155.555H155.555V162.963H148.148V155.555ZM155.555 155.555H162.963V162.963H155.555V155.555ZM170.37 155.555H177.778V162.963H170.37V155.555ZM7.40723 162.963H14.8146V170.37H7.40723V162.963ZM22.222 162.963H29.6294V170.37H22.222V162.963ZM29.6294 162.963H37.0369V170.37H29.6294V162.963ZM37.0369 162.963H44.4443V170.37H37.0369V162.963ZM51.8517 162.963H59.2591V170.37H51.8517V162.963ZM66.6665 162.963H74.0739V170.37H66.6665V162.963ZM88.8887 162.963H96.2961V170.37H88.8887V162.963ZM103.704 162.963H111.111V170.37H103.704V162.963ZM125.926 162.963H133.333V170.37H125.926V162.963ZM133.333 162.963H140.741V170.37H133.333V162.963ZM140.741 162.963H148.148V170.37H140.741V162.963ZM155.555 162.963H162.963V170.37H155.555V162.963ZM177.778 162.963H185.185V170.37H177.778V162.963ZM185.185 162.963H192.592V170.37H185.185V162.963ZM7.40723 170.37H14.8146V177.778H7.40723V170.37ZM22.222 170.37H29.6294V177.778H22.222V170.37ZM29.6294 170.37H37.0369V177.778H29.6294V170.37ZM37.0369 170.37H44.4443V177.778H37.0369V170.37ZM51.8517 170.37H59.2591V177.778H51.8517V170.37ZM66.6665 170.37H74.0739V177.778H66.6665V170.37ZM74.0739 170.37H81.4813V177.778H74.0739V170.37ZM96.2961 170.37H103.704V177.778H96.2961V170.37ZM103.704 170.37H111.111V177.778H103.704V170.37ZM111.111 170.37H118.518V177.778H111.111V170.37ZM125.926 170.37H133.333V177.778H125.926V170.37ZM148.148 170.37H155.555V177.778H148.148V170.37ZM162.963 170.37H170.37V177.778H162.963V170.37ZM185.185 170.37H192.592V177.778H185.185V170.37ZM7.40723 177.778H14.8146V185.185H7.40723V177.778ZM51.8517 177.778H59.2591V185.185H51.8517V177.778ZM66.6665 177.778H74.0739V185.185H66.6665V177.778ZM74.0739 177.778H81.4813V185.185H74.0739V177.778ZM88.8887 177.778H96.2961V185.185H88.8887V177.778ZM96.2961 177.778H103.704V185.185H96.2961V177.778ZM111.111 177.778H118.518V185.185H111.111V177.778ZM118.518 177.778H125.926V185.185H118.518V177.778ZM125.926 177.778H133.333V185.185H125.926V177.778ZM140.741 177.778H148.148V185.185H140.741V177.778ZM148.148 177.778H155.555V185.185H148.148V177.778ZM155.555 177.778H162.963V185.185H155.555V177.778ZM185.185 177.778H192.592V185.185H185.185V177.778ZM7.40723 185.185H14.8146V192.592H7.40723V185.185ZM14.8146 185.185H22.222V192.592H14.8146V185.185ZM22.222 185.185H29.6294V192.592H22.222V185.185ZM29.6294 185.185H37.0369V192.592H29.6294V185.185ZM37.0369 185.185H44.4443V192.592H37.0369V185.185ZM44.4443 185.185H51.8517V192.592H44.4443V185.185ZM51.8517 185.185H59.2591V192.592H51.8517V185.185ZM66.6665 185.185H74.0739V192.592H66.6665V185.185ZM81.4813 185.185H88.8887V192.592H81.4813V185.185ZM103.704 185.185H111.111V192.592H103.704V185.185ZM111.111 185.185H118.518V192.592H111.111V185.185ZM133.333 185.185H140.741V192.592H133.333V185.185ZM170.37 185.185H177.778V192.592H170.37V185.185ZM177.778 185.185H185.185V192.592H177.778V185.185ZM185.185 185.185H192.592V192.592H185.185V185.185Z" fill="#76797B"/>
</g>
<defs>
<clipPath id="clip0_4537_1210">
<rect width="200" height="200" fill="white"/>
</clipPath>
</defs>
</svg>
